<svg width="24" height="22" viewBox="0 0 24 22" fill="none" xmlns="http://www.w3.org/2000/svg">
<path d="M23.0501 10.9564L23.0105 11.0874L23.0431 11.2202L23.0431 11.2202L23.0431 11.2204L23.0432 11.2206L23.044 11.2239L23.0476 11.2392C23.0509 11.2532 23.0559 11.2749 23.0623 11.3038C23.0751 11.3615 23.0935 11.4477 23.1151 11.5588C23.1584 11.781 23.2145 12.1016 23.2644 12.4903C23.3645 13.2703 23.4381 14.3112 23.3396 15.3752C23.2408 16.4435 22.9719 17.4981 22.417 18.3362C21.873 19.1577 21.038 19.798 19.7336 20.035L19.5885 20.0613L19.4809 20.1623C17.8789 21.6653 16.1215 21.6714 14.7186 21.2876C14.0123 21.0943 13.4045 20.8028 12.9718 20.5579C12.7562 20.4359 12.5862 20.3266 12.4716 20.2489C12.4143 20.2101 12.371 20.1793 12.3429 20.1589C12.3289 20.1486 12.3186 20.141 12.3123 20.1363L12.3059 20.1315L12.3056 20.1312L12.3053 20.131L12.3051 20.1308L12.305 20.1308L11.9999 19.8951L11.6948 20.1308L11.6947 20.1308L11.6945 20.131L11.6942 20.1312L11.6939 20.1315L11.6874 20.1363C11.6812 20.141 11.6709 20.1487 11.6569 20.1589C11.6288 20.1793 11.5855 20.2101 11.5282 20.2489C11.4136 20.3266 11.2436 20.4359 11.028 20.5579C10.5953 20.8029 9.98755 21.0943 9.28127 21.2876C7.87837 21.6714 6.12111 21.6653 4.51905 20.1623L4.41147 20.0613L4.26633 20.035C2.962 19.798 2.12694 19.1577 1.58296 18.3362C1.02802 17.4981 0.759142 16.4435 0.66032 15.3752C0.561895 14.3112 0.635435 13.2703 0.735577 12.4903C0.785469 12.1016 0.841525 11.781 0.884823 11.5588C0.906458 11.4477 0.924868 11.3615 0.937671 11.3038C0.944071 11.2749 0.949065 11.2532 0.952355 11.2392L0.955974 11.2239L0.956754 11.2206L0.956809 11.2204L0.956865 11.2202L0.956874 11.2202L0.989484 11.0874L0.949846 10.9564C-0.0332341 7.70563 0.761276 5.65004 1.73926 4.40623C2.23738 3.77271 2.79654 3.33347 3.23191 3.05282C3.44904 2.91286 3.63352 2.81354 3.76132 2.75018C3.82515 2.71853 3.87463 2.69596 3.90671 2.68186C3.92274 2.67482 3.93441 2.6699 3.94133 2.66704L3.94808 2.66427C3.94826 2.6642 3.94819 2.66423 3.94829 2.66418C3.94838 2.66415 3.94865 2.66404 3.94868 2.66403C3.94873 2.66401 3.94873 2.66401 3.94869 2.66402L4.07413 2.61494L4.15825 2.50796C5.13452 1.26634 6.06814 0.728498 6.88861 0.561547C7.71202 0.393997 8.49627 0.584777 9.19987 0.942724C9.90646 1.3022 10.5067 1.81844 10.9356 2.25489C11.1485 2.47149 11.3154 2.66449 11.4281 2.80216C11.4844 2.87091 11.527 2.92559 11.5549 2.96219C11.5688 2.98048 11.5791 2.99423 11.5855 3.00294L11.5922 3.01215L11.5931 3.01339L11.5933 3.01368L11.5934 3.01379L11.5935 3.01384L11.9999 3.58247L12.4063 3.01385L12.4064 3.01379L12.4065 3.01369L12.4067 3.01339L12.4076 3.01215L12.4143 3.00295C12.4207 2.99424 12.431 2.98049 12.4449 2.9622C12.4728 2.9256 12.5154 2.87092 12.5717 2.80217C12.6844 2.6645 12.8513 2.47149 13.0642 2.2549C13.4931 1.81845 14.0934 1.3022 14.8 0.942726C15.5036 0.584778 16.2879 0.393997 17.1113 0.561547C17.9318 0.728499 18.8654 1.26634 19.8417 2.50796L19.9258 2.61494L20.0513 2.66402L20.0517 2.66418L20.0519 2.66427L20.052 2.66433L20.0526 2.66453L20.0586 2.66704C20.0655 2.6699 20.0772 2.67482 20.0932 2.68186C20.1253 2.69596 20.1748 2.71853 20.2386 2.75018C20.3664 2.81354 20.5509 2.91286 20.768 3.05282C21.2034 3.33347 21.7626 3.77271 22.2607 4.40623C23.2387 5.65004 24.0332 7.70563 23.0501 10.9564Z" stroke="#6531A2"/>
</svg>
