<svg width="100" height="122" viewBox="0 0 100 122" fill="none" xmlns="http://www.w3.org/2000/svg">
<rect x="29.5" y="37.5" width="41" height="53" rx="1.5" fill="#F7FAFF" stroke="#6531A2"/>
<path d="M34 68H57M34 72H57M34 76H57" stroke="#6531A2"/>
<path d="M34 80H47" stroke="#6531A2"/>
<rect x="40.5" y="34.5" width="19" height="5" rx="1.5" fill="#F7FAFF" stroke="#6531A2"/>
<path d="M65.5 85C65.5 85.8284 64.8284 86.5 64 86.5L62 86.5C61.1716 86.5 60.5 85.8284 60.5 85L60.5 84L60.5 62.1385L63 57.9718L65.5 62.1385L65.5 84L65.5 85Z" stroke="#6531A2"/>
<path d="M51.5 54C51.5 58.6944 47.6944 62.5 43 62.5C38.3056 62.5 34.5 58.6944 34.5 54C34.5 49.3056 38.3056 45.5 43 45.5C47.6944 45.5 51.5 49.3056 51.5 54Z" fill="#F7FAFF" stroke="#6531A2"/>
<path d="M61 47.5H61.5V47V45.5H64.5V47V47.5H65H66.5V50.5H65H64.5V51V52.5H61.5V51V50.5H61H59.5V47.5H61Z" stroke="#6531A2"/>
</svg>
