<svg width="100" height="100" viewBox="0 0 100 100" fill="none" xmlns="http://www.w3.org/2000/svg">
<path d="M75 72V42C75 40.8954 74.1046 40 73 40H27C25.8954 40 25 40.8954 25 42V72M75 72H25M75 72L80 82M25 72L20 82M20 82H75M20 82V84C20 85.1046 20.8954 86 22 86H75M80 82H25M80 82V84C80 85.1046 79.1046 86 78 86H25M51 82H41L42.3657 79.1385C42.6977 78.4429 43.3999 78 44.1707 78H51M49 82H59L57.6343 79.1385C57.3023 78.4429 56.6001 78 55.8293 78H49M32 64H47M32 59H68M28 43H72V69H28V43Z" stroke="#6531A2" stroke-linejoin="round"/>
<path d="M55 49.5C54.8865 49.5 54.7763 49.5386 54.6877 49.6096L50 53.3597L45.3123 49.6096C45.2237 49.5386 45.1135 49.5 45 49.5H34C33.1716 49.5 32.5 48.8284 32.5 48V15C32.5 14.1716 33.1716 13.5 34 13.5H66C66.8284 13.5 67.5 14.1716 67.5 15V48C67.5 48.8284 66.8284 49.5 66 49.5H55Z" fill="#F7FAFF" stroke="#6531A2" stroke-linecap="round" stroke-linejoin="round"/>
<path d="M50 45.6154V42.3317M50 45.6154C49.0132 45.5522 47.6273 45.402 46.3264 45.1463M50 45.6154C50.9868 45.5522 52.3727 45.402 53.6736 45.1463M46.3264 45.1463C44.4103 44.7696 42.6787 44.164 42.6787 43.2699V38.5788C42.6787 38.5788 37.1877 38.1097 38.1029 32.0113C37.6453 25.913 40.3908 17 49.9999 17C59.609 17 62.3547 25.913 61.8971 32.0113C62.8123 38.1097 57.3213 38.5788 57.3213 38.5788V43.2699C57.3213 44.164 55.5897 44.7696 53.6736 45.1463M46.3264 45.1463V41.8625M53.6736 45.1463V41.8625M48.1697 31.5422C48.1697 33.3558 46.7356 34.826 44.9667 34.826C43.1977 34.826 41.7636 33.3558 41.7636 31.5422C41.7636 29.7287 43.1977 28.2585 44.9667 28.2585C46.7356 28.2585 48.1697 29.7287 48.1697 31.5422ZM51.8303 31.5422C51.8303 33.3558 53.2644 34.826 55.0333 34.826C56.8023 34.826 58.2364 33.3558 58.2364 31.5422C58.2364 29.7287 56.8023 28.2585 55.0333 28.2585C53.2644 28.2585 51.8303 29.7287 51.8303 31.5422ZM50 35.7642L48.1697 38.5788H51.8303L50 35.7642Z" stroke="#6531A2" stroke-linecap="round" stroke-linejoin="round"/>
</svg>
